<svg id="Layer_1" data-name="Layer 1" xmlns="http://www.w3.org/2000/svg" viewBox="0 0 999.71 566"><title>black-white</title><path d="M274.35,444.36q-120.87,0-120.88-158.91,0-76.45,29.75-119.94T266.07,122a235.59,235.59,0,0,1,24.45,1.27,65.33,65.33,0,0,1,11.24-11.77L407.25,25.56A389.79,389.79,0,0,0,267.58,0Q185.86,0,125.42,34.83T32.78,134.44Q.58,199.21.58,284.69q0,136.71,66.47,209T258.16,566q87,0,155.91-30.5V409.72a710.63,710.63,0,0,1-68.92,24.48A247.57,247.57,0,0,1,274.35,444.36Z"/><path d="M665.94,7.91H531.88L502.8,31.6,463.35,63.74l-51.09,41.62L365,143.89l-22.14,18,9.8,12,38.16,46.91L420,256.83l62.51-51.59a324.22,324.22,0,0,0,34.64-35.4q-2.25,44.06-2.26,97.16v46.92a66.7,66.7,0,0,1,4.64-7.95L665.94,92Z"/><path d="M939.66,340.81V7.91H802.21L731,112.06l-32.52,47.55-32.52,47.55L573.25,342.69V451.9H792.79V558.47H939.66V451.9h60.63V340.81ZM794.11,228q-1.32,30.69-1.32,48.77v64H702L731,297.76l32.07-47.71a397.84,397.84,0,0,0,29-54.23h4.14Q795.43,197.34,794.11,228Z"/></svg>