<svg id="Layer_1" data-name="Layer 1" xmlns="http://www.w3.org/2000/svg" viewBox="0 0 999.71 566"><defs><style>.cls-1{fill:#cfd2d3;}.cls-2{fill:#f32735;}</style></defs><title>dark-ver</title><path class="cls-1" d="M273.77,444.36q-120.87,0-120.88-158.91,0-76.45,29.75-119.94T265.49,122a235.59,235.59,0,0,1,24.45,1.27,65.33,65.33,0,0,1,11.24-11.77L406.67,25.56A389.79,389.79,0,0,0,267,0Q185.27,0,124.84,34.83T32.2,134.44Q0,199.21,0,284.69q0,136.71,66.47,209T257.58,566q87,0,155.9-30.5V409.72a709.52,709.52,0,0,1-68.91,24.48A247.57,247.57,0,0,1,273.77,444.36Z"/><path class="cls-2" d="M665.36,7.91H531.3L502.22,31.6,462.77,63.74l-51.09,41.62L364.4,143.89l-22.14,18,9.8,12,38.16,46.91,29.23,35.94L482,205.24a324.22,324.22,0,0,0,34.64-35.4q-2.25,44.06-2.26,97.16v46.92A66.7,66.7,0,0,1,519,306L665.36,92Z"/><path class="cls-2" d="M939.08,340.81V7.91H801.63L730.39,112.06l-32.51,47.55-32.52,47.55L572.67,342.69V451.9H792.21V558.47H939.08V451.9h60.63V340.81ZM793.53,228q-1.32,30.69-1.32,48.77v64H701.46l28.93-43.05,32.08-47.71a397.84,397.84,0,0,0,29-54.23h4.14Q794.85,197.34,793.53,228Z"/></svg>