<svg id="Layer_1" data-name="Layer 1" xmlns="http://www.w3.org/2000/svg" viewBox="0 0 999.71 566"><defs><style>.cls-1{fill:#1d252c;}.cls-2{fill:#f32735;}</style></defs><title>light-ver</title><path class="cls-1" d="M274.06,444.36q-120.87,0-120.88-158.91,0-76.45,29.75-119.94T265.78,122a235.59,235.59,0,0,1,24.45,1.27,65.33,65.33,0,0,1,11.24-11.77L407,25.56A389.79,389.79,0,0,0,267.29,0Q185.56,0,125.13,34.83T32.49,134.44Q.28,199.21.29,284.69q0,136.71,66.47,209T257.87,566q87,0,155.91-30.5V409.72a710.63,710.63,0,0,1-68.92,24.48A247.57,247.57,0,0,1,274.06,444.36Z"/><path class="cls-2" d="M665.65,7.91H531.59L502.51,31.6,463.06,63.74,412,105.36l-47.28,38.53-22.14,18,9.8,12,38.16,46.91,29.24,35.94,62.51-51.59a324.22,324.22,0,0,0,34.64-35.4q-2.25,44.06-2.26,97.16v46.92a66.7,66.7,0,0,1,4.64-7.95L665.65,92Z"/><path class="cls-2" d="M939.37,340.81V7.91H801.92L730.69,112.06l-32.52,47.55-32.52,47.55L573,342.69V451.9H792.5V558.47H939.37V451.9H1000V340.81ZM793.82,228q-1.32,30.69-1.32,48.77v64H701.75l28.94-43.05,32.07-47.71a397.84,397.84,0,0,0,29-54.23h4.14Q795.14,197.34,793.82,228Z"/></svg>