<?xml version="1.0" encoding="UTF-8"?>
<svg width="630.26" height="356.88" data-name="Dark" version="1.1" viewBox="0 0 630.26 356.88"
    xmlns="http://www.w3.org/2000/svg">
    <title>chez14-logo-icon</title>
    <g fill="#1d252d">
        <path d="m172.6 280.15q-76.22 0-76.21-100.19 0-48.19 18.75-75.61t52.24-27.42a146.6 146.6 0 0 1 15.41 0.8 40.68 40.68 0 0 1 7.09-7.42l66.5-54.19a245.77 245.77 0 0 0-88.05-16.12q-51.52 0-89.63 22-38.11 22-58.4 62.8-20.29 40.85-20.3 94.73 0 86.18 41.9 131.76t120.49 45.59q54.84 0 98.29-19.23v-79.3a445.31 445.31 0 0 1-43.45 15.43 156.18 156.18 0 0 1-44.63 6.37z" marker-start="url(#chz-a)"/>
        <path d="m419.47 4.9905h-84.52l-18.33 14.94-24.87 20.26-32.21 26.23-29.81 24.3-14 11.37 6.18 7.6 24.06 29.57 18.43 22.66 39.45-32.5a202.28 202.28 0 0 0 21.84-22.31q-1.43 27.78-1.42 61.25v29.58a41.91 41.91 0 0 1 2.92-5l92.28-134.92z" marker-start="url(#chz-a)"/>
        <path d="m592.04 214.86v-209.87h-86.66l-44.91 65.66-41 60-58.43 85.45v68.85h138.41v67.19h92.59v-67.24h38.22v-70zm-91.76-71.1q-0.84 19.35-0.83 30.74v40.36h-57.22l18.24-27.14 20.22-30.07a251.19 251.19 0 0 0 18.28-34.23h2.61q-0.45 1-1.3 20.34z" marker-start="url(#chz-a)"/>
    </g>
</svg>
